<svg width="24" height="24" viewBox="0 0 24 24" fill="none" xmlns="http://www.w3.org/2000/svg">
<path d="M18.2649 4.60779C16.0571 2.39998 12.4617 2.39998 10.2563 4.60779L4.13908 10.7203C4.09924 10.7601 4.07815 10.814 4.07815 10.8703C4.07815 10.9265 4.09924 10.9805 4.13908 11.0203L5.00393 11.8851C5.04346 11.9245 5.09697 11.9466 5.15276 11.9466C5.20854 11.9466 5.26205 11.9245 5.30158 11.8851L11.4188 5.77264C12.1781 5.01326 13.1883 4.59608 14.2617 4.59608C15.3352 4.59608 16.3453 5.01326 17.1024 5.77264C17.8617 6.53201 18.2789 7.54217 18.2789 8.61326C18.2789 9.6867 17.8617 10.6945 17.1024 11.4539L10.868 17.6859L9.85783 18.6961C8.9133 19.6406 7.37815 19.6406 6.43362 18.6961C5.97658 18.239 5.7258 17.632 5.7258 16.9851C5.7258 16.3383 5.97658 15.7312 6.43362 15.2742L12.6188 9.09139C12.7758 8.9367 12.9821 8.84998 13.2024 8.84998H13.2047C13.425 8.84998 13.6289 8.9367 13.7836 9.09139C13.9406 9.24842 14.025 9.45467 14.025 9.67498C14.025 9.89295 13.9383 10.0992 13.7836 10.2539L8.72815 15.3047C8.6883 15.3445 8.66721 15.3984 8.66721 15.4547C8.66721 15.5109 8.6883 15.5648 8.72815 15.6047L9.59299 16.4695C9.63252 16.5089 9.68603 16.531 9.74182 16.531C9.7976 16.531 9.85111 16.5089 9.89065 16.4695L14.9438 11.4164C15.4102 10.95 15.6656 10.3312 15.6656 9.67264C15.6656 9.01404 15.4078 8.39295 14.9438 7.92889C13.9805 6.96561 12.4149 6.96795 11.4516 7.92889L10.8516 8.53123L5.26877 14.1117C4.88986 14.4884 4.5895 14.9366 4.38512 15.4302C4.18074 15.9239 4.0764 16.4532 4.07815 16.9875C4.07815 18.0726 4.50237 19.0922 5.26877 19.8586C6.0633 20.6508 7.10393 21.0469 8.14455 21.0469C9.18518 21.0469 10.2258 20.6508 11.018 19.8586L18.2649 12.6164C19.3313 11.5476 19.9219 10.125 19.9219 8.61326C19.9242 7.0992 19.3336 5.67654 18.2649 4.60779Z" fill="#EF4650"/>
</svg>
