<svg width="23" height="23" viewBox="0 0 23 23" fill="none" xmlns="http://www.w3.org/2000/svg">
<path d="M18.772 14.8465L17.0336 13.6103C17.3256 12.5367 17.3239 11.4045 17.0288 10.3318L18.773 9.11091L17.3805 6.70166L15.4409 7.58907C14.6569 6.79943 13.6752 6.2348 12.5985 5.95416L12.4135 3.83337H9.62858L9.44362 5.95416C8.36707 6.23518 7.38575 6.80015 6.60216 7.59003L4.66154 6.70262L3.27004 9.11187L5.0142 10.3328C4.71896 11.4051 4.71697 12.537 5.00845 13.6103L3.27004 14.8465L4.66154 17.2443L6.60216 16.3559C7.38586 17.1454 8.36718 17.7101 9.44362 17.9908L9.62858 20.1116H12.4135L12.5985 17.9908C13.6749 17.71 14.6562 17.1454 15.4399 16.3559L17.3805 17.2443L18.773 14.8475L18.772 14.8465ZM12.9425 2.86066C13.0658 2.86053 13.1845 2.90797 13.2738 2.99312C13.363 3.07827 13.416 3.19456 13.4217 3.31778L13.5922 5.26799C14.3007 5.53796 14.9616 5.91904 15.5501 6.39691L17.323 5.56986C17.4325 5.51352 17.5595 5.5015 17.6777 5.5363C17.7958 5.5711 17.896 5.65004 17.9575 5.75674L19.8789 9.08216C19.9407 9.18875 19.959 9.31502 19.9301 9.43477C19.9011 9.55451 19.8272 9.65852 19.7237 9.7252L18.1194 10.8484C18.2421 11.6131 18.2382 12.375 18.1204 13.1091L19.7237 14.2303C19.8275 14.297 19.9016 14.4012 19.9305 14.5212C19.9594 14.6411 19.9409 14.7676 19.8789 14.8743L17.9575 18.1873C17.896 18.294 17.7958 18.3729 17.6777 18.4077C17.5595 18.4425 17.4325 18.4305 17.323 18.3742L15.5501 17.5471C14.9732 18.0167 14.3158 18.4 13.5922 18.677L13.4217 20.6272C13.4157 20.7503 13.3627 20.8663 13.2734 20.9512C13.1842 21.0362 13.0657 21.0835 12.9425 21.0834H9.09958C8.97638 21.0835 8.85786 21.0362 8.76864 20.9512C8.67941 20.8663 8.62632 20.7503 8.62041 20.6272L8.44983 18.677C7.74136 18.4067 7.08046 18.0253 6.49195 17.5471L4.71904 18.3742C4.60955 18.4309 4.48242 18.4432 4.36408 18.4086C4.24574 18.3739 4.14531 18.295 4.08366 18.1882L2.16316 14.8734C2.10142 14.7668 2.08311 14.6405 2.11202 14.5208C2.14093 14.401 2.21484 14.297 2.31841 14.2303L3.9217 13.1081C3.80164 12.3593 3.80164 11.5962 3.9217 10.8474L2.31937 9.7252C2.21605 9.65853 2.14231 9.5547 2.11342 9.43518C2.08452 9.31567 2.10267 9.18962 2.16412 9.08311L4.0827 5.75674C4.14419 5.64979 4.24456 5.57067 4.36291 5.53586C4.48126 5.50105 4.60848 5.51323 4.71808 5.56986L6.49099 6.39691C7.07954 5.91904 7.74045 5.53796 8.44887 5.26799L8.61945 3.31778C8.62513 3.19456 8.67811 3.07827 8.76736 2.99312C8.85661 2.90797 8.97527 2.86053 9.09862 2.86066H12.9415H12.9425ZM11.021 8.62503C11.9106 8.62503 12.7638 8.97842 13.3928 9.60744C14.0218 10.2365 14.3752 11.0896 14.3752 11.9792C14.3752 12.8688 14.0218 13.7219 13.3928 14.351C12.7638 14.98 11.9106 15.3334 11.021 15.3334C10.1315 15.3334 9.27831 14.98 8.64928 14.351C8.02025 13.7219 7.66687 12.8688 7.66687 11.9792C7.66687 11.0896 8.02025 10.2365 8.64928 9.60744C9.27831 8.97842 10.1315 8.62503 11.021 8.62503ZM11.021 9.58336C10.3856 9.58336 9.77623 9.83578 9.32693 10.2851C8.87762 10.7344 8.6252 11.3438 8.6252 11.9792C8.6252 12.6146 8.87762 13.224 9.32693 13.6733C9.77623 14.1226 10.3856 14.375 11.021 14.375C11.6565 14.375 12.2658 14.1226 12.7151 13.6733C13.1645 13.224 13.4169 12.6146 13.4169 11.9792C13.4169 11.3438 13.1645 10.7344 12.7151 10.2851C12.2658 9.83578 11.6565 9.58336 11.021 9.58336Z" fill="white"/>
</svg>
