<svg width="12" height="12" viewBox="0 0 12 12" fill="none" xmlns="http://www.w3.org/2000/svg">
<path fill-rule="evenodd" clip-rule="evenodd" d="M7.29001 3.56881L6.10692 1.47106L4.92383 3.56881C4.66377 4.02992 4.21586 4.35515 3.6967 4.45984L1.33483 4.9361L2.96551 6.70885C3.32395 7.09852 3.49504 7.62475 3.43423 8.15056L3.1576 10.5427L5.34851 9.54053C5.8301 9.32025 6.38374 9.32025 6.86532 9.54053L9.05623 10.5427L8.7796 8.15056C8.7188 7.62475 8.88989 7.09852 9.24833 6.70885L10.879 4.9361L8.51713 4.45984C7.99797 4.35515 7.55006 4.02992 7.29001 3.56881ZM6.9007 1.02392C6.55216 0.405925 5.66168 0.405925 5.31314 1.02392L4.13005 3.12168C4.00002 3.35223 3.77606 3.51484 3.51648 3.56719L1.15461 4.04346C0.458797 4.18377 0.183624 5.03015 0.664026 5.55241L2.29471 7.32516C2.47393 7.51999 2.55947 7.78311 2.52907 8.04601L2.25244 10.4381C2.17095 11.1428 2.89136 11.6659 3.53681 11.3707L5.72772 10.3686C5.96851 10.2584 6.24533 10.2584 6.48612 10.3686L8.67703 11.3707C9.32248 11.6659 10.0429 11.1428 9.96139 10.4381L9.68477 8.04601C9.65436 7.78311 9.73991 7.51999 9.91913 7.32516L11.5498 5.55241C12.0302 5.03015 11.755 4.18377 11.0592 4.04346L8.69735 3.56719C8.43777 3.51484 8.21382 3.35223 8.08379 3.12167L6.9007 1.02392Z" fill="#F04650"/>
</svg>
