<svg width="12" height="12" viewBox="0 0 12 12" fill="none" xmlns="http://www.w3.org/2000/svg">
<path fill-rule="evenodd" clip-rule="evenodd" d="M6.97687 1.02392C6.62833 0.405925 5.73785 0.405925 5.38931 1.02392L4.20622 3.12168C4.07619 3.35223 3.85224 3.51484 3.59266 3.56719L1.23078 4.04346C0.534969 4.18377 0.259795 5.03015 0.740197 5.55241L2.37088 7.32516C2.5501 7.51999 2.63564 7.78311 2.60524 8.04601L2.32861 10.4381C2.24712 11.1428 2.96753 11.6659 3.61298 11.3707L5.80389 10.3686C6.04468 10.2584 6.3215 10.2584 6.56229 10.3686L8.7532 11.3707C9.39865 11.6659 10.1191 11.1428 10.0376 10.4381L9.76094 8.04601C9.73054 7.78311 9.81608 7.51999 9.9953 7.32516L11.626 5.55241C12.1064 5.03015 11.8312 4.18377 11.1354 4.04346L8.77353 3.56719C8.51394 3.51484 8.28999 3.35223 8.15996 3.12167L6.97687 1.02392Z" fill="#F04650"/>
</svg>
