<svg width="42" height="42" viewBox="0 0 42 42" fill="none" xmlns="http://www.w3.org/2000/svg">
<path d="M0.999999 0.797363C0.447714 0.797363 0 1.24508 0 1.79736V40.9527C0 41.505 0.447715 41.9527 1 41.9527H20.9177C21.47 41.9527 21.9177 41.505 21.9177 40.9527V27.0553C21.9177 26.503 21.47 26.0553 20.9177 26.0553H17.5599C17.0076 26.0553 16.5599 25.6076 16.5599 25.0553V20.5655C16.5599 20.0132 17.0076 19.5655 17.5599 19.5655H20.9177C21.47 19.5655 21.9177 19.1178 21.9177 18.5655V14.1152C21.9177 10.1514 25.131 6.93811 29.0948 6.93811H33.6961C34.2484 6.93811 34.6961 7.38583 34.6961 7.93811V11.7739C34.6961 12.3262 34.2484 12.7739 33.6961 12.7739H30.6881C29.4286 12.7739 28.4075 13.795 28.4075 15.0545V18.5656C28.4075 19.1179 28.8552 19.5656 29.4075 19.5656H33.455C34.0592 19.5656 34.5254 20.0972 34.4464 20.6962L33.8548 25.186C33.7892 25.6835 33.3651 26.0554 32.8633 26.0554H29.4075C28.8552 26.0554 28.4075 26.5031 28.4075 27.0554V40.9527C28.4075 41.505 28.8552 41.9527 29.4075 41.9527H40.1554C40.7077 41.9527 41.1554 41.505 41.1554 40.9527V1.79736C41.1554 1.24508 40.7077 0.797363 40.1554 0.797363H0.999999Z" fill="#3A559F"/>
</svg>
