<svg width="43" height="42" viewBox="0 0 43 42" fill="none" xmlns="http://www.w3.org/2000/svg">
<rect x="0.323242" y="0.797363" width="41.7191" height="41.1554" rx="1" fill="#FF9800"/>
<g clip-path="url(#clip0)">
<path d="M20.8187 22.2622C25.4124 22.2622 29.1365 18.5885 29.1365 14.0568C29.1365 9.52509 25.4125 5.8515 20.8187 5.8515C16.2249 5.8515 12.501 9.52515 12.501 14.0569C12.5066 18.5862 16.2273 22.2566 20.8187 22.2622ZM20.8187 9.63858C23.2922 9.63858 25.2975 11.6167 25.2975 14.0569C25.2975 16.4971 23.2923 18.4752 20.8187 18.4752C18.3451 18.4752 16.3399 16.4971 16.3399 14.0569C16.3399 11.6167 18.3451 9.63858 20.8187 9.63858Z" fill="white"/>
<path d="M28.9668 26.1503C29.8708 25.5629 30.4154 24.5671 30.4167 23.4993C30.4293 22.6131 29.9223 21.7994 29.1153 21.4101C28.286 21.0015 27.2934 21.0935 26.5559 21.6474C23.1379 24.1057 18.5019 24.1057 15.0839 21.6474C14.3452 21.0964 13.3543 21.0045 12.5245 21.4101C11.7178 21.7993 11.2106 22.6122 11.2219 23.498C11.2238 24.5656 11.7683 25.5612 12.6717 26.149C13.8309 26.9094 15.0932 27.5044 16.4211 27.9163C16.6464 27.9853 16.8788 28.0493 17.1186 28.1082L13.2515 31.8385C12.237 32.8095 12.2125 34.4078 13.1968 35.4086C14.181 36.4093 15.8013 36.4335 16.8158 35.4625C16.8369 35.4423 16.8576 35.4218 16.878 35.4008L20.8194 31.3764L24.7684 35.4084C25.7518 36.4099 27.3721 36.4354 28.3874 35.4652C29.4026 34.4951 29.4284 32.8967 28.4449 31.8952C28.4244 31.8742 28.4034 31.8536 28.3821 31.8334L24.5214 28.1069C24.7611 28.0463 24.9944 27.9819 25.2214 27.9138C26.5479 27.5035 27.809 26.9097 28.9668 26.1503Z" fill="white"/>
</g>
<defs>
<clipPath id="clip0">
<rect x="5.44824" y="5.8515" width="30.7404" height="30.325" fill="white"/>
</clipPath>
</defs>
</svg>
