<svg width="26" height="24" viewBox="0 0 26 24" fill="none" xmlns="http://www.w3.org/2000/svg">
<path fill-rule="evenodd" clip-rule="evenodd" d="M20.4163 0.195618H5.77886V1.93543H0.689453V10.0962C0.689453 13.2501 4.12522 15.8455 7.49675 16.1155C8.60357 17.3305 10.5504 18.2131 12.2831 18.5894V20.7224C10.6262 21.2438 7.66639 22.4689 7.49675 23.8037H18.868C18.6967 22.4689 15.4356 21.2421 13.7753 20.7224V18.5894C15.5146 18.2131 17.5487 17.3305 18.6572 16.1155C22.0271 15.8455 25.3113 13.2501 25.3113 10.0962V1.93543H20.4163V0.195618ZM2.25251 3.48118H5.66028V10.5113C5.66028 11.8984 6.00945 13.2181 6.62381 14.4061C4.07416 13.5741 2.25251 11.431 2.25251 8.92337V3.48118ZM15.6003 12.0554L13.0572 10.6193L10.5109 12.0554L10.9967 9.01787L8.93792 6.86799L11.7824 6.42418L13.0572 3.66343L14.3287 6.42418L17.1732 6.86799L15.1144 9.01787L15.6003 12.0554ZM19.3803 14.6305C19.9979 13.3885 20.352 12.0149 20.352 10.5619V3.52674H23.768V8.90312C23.768 11.5238 21.9382 13.7614 19.3803 14.6305Z" fill="#F04650"/>
</svg>
