<svg width="42" height="42" viewBox="0 0 42 42" fill="none" xmlns="http://www.w3.org/2000/svg">
<path d="M40.3663 0.797363H1.21094C0.658653 0.797363 0.210938 1.24508 0.210938 1.79736V40.9527C0.210938 41.505 0.658651 41.9527 1.21094 41.9527H40.3663C40.9186 41.9527 41.3663 41.505 41.3663 40.9527V1.79736C41.3663 1.24508 40.9186 0.797363 40.3663 0.797363Z" fill="#44678D"/>
<path d="M10.8728 13.3219C11.8592 15.7577 13.1092 18.0541 14.7555 20.1157C14.9739 20.3901 15.2492 20.634 15.5391 20.8326C15.9627 21.1235 16.3623 21.0212 16.5345 20.5367C16.7166 20.0283 16.8838 18.9979 16.8937 18.464C16.9209 17.069 16.8897 16.1547 16.8147 14.7614C16.7661 13.869 16.4489 13.0854 15.1362 12.8489C14.7308 12.7756 14.6931 12.4419 14.9536 12.109C15.4958 11.416 16.2511 11.3056 17.0702 11.2618C18.3977 11.1901 19.7301 11.2487 21.0592 11.2618C21.6006 11.2668 22.1452 11.3104 22.6784 11.4267C23.3738 11.5783 23.7463 12.0661 23.8609 12.745C23.9202 13.0952 23.9507 13.4553 23.9424 13.8097C23.9078 15.3324 23.8345 16.8543 23.8171 18.3763C23.8097 18.9736 23.8534 19.5859 23.9811 20.1677C24.1599 20.9784 24.712 21.182 25.2765 20.5962C25.9933 19.8521 26.6254 19.0149 27.2186 18.1646C28.2964 16.6179 29.1014 14.9205 29.7944 13.1704C30.1529 12.2673 30.4273 12.0712 31.3987 12.0687C33.2247 12.0646 35.0507 12.063 36.8767 12.0687C37.2005 12.0704 37.5392 12.1009 37.8449 12.1981C38.3409 12.3564 38.5379 12.7609 38.4217 13.2743C38.1506 14.4774 37.5004 15.4999 36.8042 16.483C35.6868 18.0601 34.5159 19.5994 33.3723 21.1583C33.2264 21.3569 33.0979 21.5687 32.9784 21.7837C32.5507 22.5566 32.5804 22.99 33.2041 23.6335C34.197 24.6578 35.26 25.616 36.2216 26.6683C36.9204 27.4338 37.5672 28.2643 38.1209 29.1386C38.8214 30.2444 38.3887 31.2859 37.0802 31.4713C36.2571 31.5875 32.2361 31.4722 32.0283 31.4713C30.9473 31.4664 29.9997 31.0915 29.2366 30.3573C28.3879 29.5399 27.6166 28.6434 26.8017 27.7905C26.5561 27.5334 26.2941 27.2871 26.0115 27.0719C25.3449 26.5635 24.6906 26.6764 24.3791 27.4593C24.113 28.1317 23.8831 29.8974 23.8723 30.0483C23.8163 30.8368 23.3145 31.3395 22.4311 31.388C19.8809 31.5265 17.4096 31.2422 15.1075 30.0087C13.1562 28.9639 11.5981 27.4865 10.2484 25.7635C8.10431 23.0269 6.41079 20.0187 4.86466 16.9222C4.78564 16.7638 3.21964 13.4315 3.17756 13.2741C3.03767 12.7471 3.16816 12.2437 3.61347 12.0704C3.89107 11.9623 9.05424 12.07 9.14012 12.0746C9.96398 12.1192 10.5258 12.4668 10.8728 13.3219Z" fill="white"/>
</svg>
