<svg width="18" height="18" viewBox="0 0 18 18" fill="none" xmlns="http://www.w3.org/2000/svg">
<path d="M1.5 15.8878L4.63775 12.75H14.625C15.0891 12.75 15.5342 12.5656 15.8624 12.2374C16.1906 11.9092 16.375 11.4641 16.375 11V3.125C16.375 2.66087 16.1906 2.21575 15.8624 1.88756C15.5342 1.55937 15.0891 1.375 14.625 1.375H3.25C2.78587 1.375 2.34075 1.55937 2.01256 1.88756C1.68437 2.21575 1.5 2.66087 1.5 3.125V15.8878ZM1.5 17.125H0.625V3.125C0.625 2.42881 0.901562 1.76113 1.39384 1.26884C1.88613 0.776562 2.55381 0.5 3.25 0.5H14.625C15.3212 0.5 15.9889 0.776562 16.4812 1.26884C16.9734 1.76113 17.25 2.42881 17.25 3.125V11C17.25 11.6962 16.9734 12.3639 16.4812 12.8562C15.9889 13.3484 15.3212 13.625 14.625 13.625H5L1.5 17.125Z" fill="#F04650"/>
</svg>
