<svg width="20" height="20" viewBox="0 0 20 20" fill="none" xmlns="http://www.w3.org/2000/svg">
<path d="M1.66016 18.3467L5.24616 14.7607H16.6602C17.1906 14.7607 17.6993 14.55 18.0744 14.175C18.4494 13.7999 18.6602 13.2912 18.6602 12.7607V3.76074C18.6602 3.23031 18.4494 2.7216 18.0744 2.34653C17.6993 1.97146 17.1906 1.76074 16.6602 1.76074H3.66016C3.12972 1.76074 2.62102 1.97146 2.24594 2.34653C1.87087 2.7216 1.66016 3.23031 1.66016 3.76074V18.3467ZM1.66016 19.7607H0.660156V3.76074C0.660156 2.96509 0.976227 2.20203 1.53884 1.63942C2.10145 1.07681 2.86451 0.760742 3.66016 0.760742H16.6602C17.4558 0.760742 18.2189 1.07681 18.7815 1.63942C19.3441 2.20203 19.6602 2.96509 19.6602 3.76074V12.7607C19.6602 13.5564 19.3441 14.3195 18.7815 14.8821C18.2189 15.4447 17.4558 15.7607 16.6602 15.7607H5.66016L1.66016 19.7607Z" fill="#F04650"/>
</svg>
