<svg width="17" height="20" viewBox="0 0 17 20" fill="none" xmlns="http://www.w3.org/2000/svg">
<path d="M9 1.76074C9 1.62813 8.94732 1.50096 8.85355 1.40719C8.75979 1.31342 8.63261 1.26074 8.5 1.26074C8.36739 1.26074 8.24021 1.31342 8.14645 1.40719C8.05268 1.50096 8 1.62813 8 1.76074V3.28774C6.89981 3.41075 5.88356 3.93498 5.14561 4.7602C4.40766 5.58542 3.99979 6.65369 4 7.76074V13.6747L2.414 15.2607H14.586L13 13.6747V7.76074C13.0002 6.65369 12.5923 5.58542 11.8544 4.7602C11.1164 3.93498 10.1002 3.41075 9 3.28774V1.76074ZM8.5 0.260742C8.89782 0.260742 9.27936 0.418777 9.56066 0.700082C9.84196 0.981387 10 1.36292 10 1.76074V2.46774C12.309 3.12074 14 5.24274 14 7.76074V13.2607L17 16.2607H0L3 13.2607V7.76074C3 6.56341 3.39058 5.39876 4.11247 4.44352C4.83436 3.48829 5.84815 2.7946 7 2.46774V1.76074C7 1.36292 7.15804 0.981387 7.43934 0.700082C7.72064 0.418777 8.10218 0.260742 8.5 0.260742ZM8.5 19.2607C7.92367 19.2609 7.36501 19.0619 6.91855 18.6974C6.47209 18.3329 6.16527 17.8254 6.05 17.2607H7.085C7.18807 17.5537 7.37955 17.8075 7.63301 17.987C7.88647 18.1666 8.1894 18.263 8.5 18.263C8.8106 18.263 9.11353 18.1666 9.36699 17.987C9.62045 17.8075 9.81193 17.5537 9.915 17.2607H10.95C10.8347 17.8254 10.5279 18.3329 10.0815 18.6974C9.63499 19.0619 9.07633 19.2609 8.5 19.2607Z" fill="#F04650"/>
</svg>
