<svg width="19" height="19" viewBox="0 0 19 19" fill="none" xmlns="http://www.w3.org/2000/svg">
<path d="M9.22629 11.5506C14.2019 11.5506 18.2358 13.433 18.2358 15.7551V18.7582H0.216797V15.7551C0.216797 13.433 4.25065 11.5506 9.22629 11.5506ZM9.22629 0.739258C10.3414 0.739258 11.4108 1.18222 12.1993 1.97071C12.9878 2.75919 13.4307 3.8286 13.4307 4.94369C13.4307 6.05877 12.9878 7.12818 12.1993 7.91667C11.4108 8.70515 10.3414 9.14812 9.22629 9.14812C8.1112 9.14812 7.04179 8.70515 6.25331 7.91667C5.46482 7.12818 5.02186 6.05877 5.02186 4.94369C5.02186 3.8286 5.46482 2.75919 6.25331 1.97071C7.04179 1.18222 8.1112 0.739258 9.22629 0.739258Z" fill="#F04650"/>
</svg>
