<svg width="25" height="24" viewBox="0 0 25 24" fill="none" xmlns="http://www.w3.org/2000/svg">
<path fill-rule="evenodd" clip-rule="evenodd" d="M15.1018 6.61982L12.5 2.00382L9.89823 6.61982C9.32634 7.63446 8.34132 8.35011 7.19962 8.58047L2.00555 9.62848L5.59164 13.5293C6.3799 14.3868 6.75613 15.5447 6.62242 16.7017L6.01408 21.9654L10.8322 19.7603C11.8912 19.2756 13.1088 19.2756 14.1678 19.7603L18.9859 21.9654L18.3776 16.7017C18.2439 15.5447 18.6201 14.3868 19.4084 13.5293L22.9944 9.62848L17.8004 8.58047C16.6587 8.35011 15.6737 7.63446 15.1018 6.61982ZM14.2456 1.01991C13.4791 -0.33997 11.5209 -0.33997 10.7544 1.01991L8.1526 5.63591C7.86666 6.14323 7.37415 6.50106 6.8033 6.61624L1.60923 7.66425C0.0790493 7.97299 -0.526093 9.83543 0.530373 10.9846L4.11646 14.8855C4.51059 15.3142 4.69871 15.8932 4.63185 16.4717L4.02351 21.7354C3.84429 23.2861 5.42857 24.4371 6.84799 23.7875L11.6661 21.5823C12.1956 21.34 12.8044 21.34 13.3339 21.5824L18.152 23.7875C19.5714 24.4371 21.1557 23.2861 20.9765 21.7354L20.3682 16.4717C20.3013 15.8932 20.4894 15.3142 20.8835 14.8855L24.4696 10.9846C25.5261 9.83543 24.9209 7.97299 23.3908 7.66425L18.1967 6.61624C17.6258 6.50106 17.1333 6.14323 16.8474 5.63591L14.2456 1.01991Z" fill="#F2911E"/>
</svg>
