<svg width="28" height="29" viewBox="0 0 28 29" fill="none" xmlns="http://www.w3.org/2000/svg">
<path d="M6.875 13.5H13.375V7H15V13.5H21.5V15.125H15V21.625H13.375V15.125H6.875V13.5ZM5.25 0.5H23.125C24.4179 0.5 25.6579 1.01361 26.5721 1.92785C27.4864 2.84209 28 4.08207 28 5.375V23.25C28 24.5429 27.4864 25.7829 26.5721 26.6971C25.6579 27.6114 24.4179 28.125 23.125 28.125H5.25C3.95707 28.125 2.71709 27.6114 1.80285 26.6971C0.888615 25.7829 0.375 24.5429 0.375 23.25V5.375C0.375 4.08207 0.888615 2.84209 1.80285 1.92785C2.71709 1.01361 3.95707 0.5 5.25 0.5ZM5.25 2.125C4.38805 2.125 3.5614 2.46741 2.9519 3.0769C2.34241 3.6864 2 4.51305 2 5.375V23.25C2 24.112 2.34241 24.9386 2.9519 25.5481C3.5614 26.1576 4.38805 26.5 5.25 26.5H23.125C23.987 26.5 24.8136 26.1576 25.4231 25.5481C26.0326 24.9386 26.375 24.112 26.375 23.25V5.375C26.375 4.51305 26.0326 3.6864 25.4231 3.0769C24.8136 2.46741 23.987 2.125 23.125 2.125H5.25Z" fill="#F04650"/>
</svg>
