<svg width="20" height="20" viewBox="0 0 20 20" fill="none" xmlns="http://www.w3.org/2000/svg">
<path d="M3.53661 10.2101C3.17966 9.85301 2.90316 9.42376 2.72567 8.95111C2.54818 8.47845 2.4738 7.97331 2.50751 7.46956C2.54123 6.9658 2.68225 6.47508 2.92114 6.03029C3.16003 5.5855 3.49125 5.19692 3.89261 4.89062C4.29396 4.58432 4.75616 4.36737 5.24822 4.25431C5.74028 4.14126 6.25083 4.13472 6.74563 4.23513C7.24042 4.33553 7.70803 4.54057 8.1171 4.83649C8.52617 5.13241 8.86724 5.51237 9.11745 5.95089H10.0491C10.2993 5.51237 10.6404 5.13241 11.0495 4.83649C11.4585 4.54057 11.9261 4.33553 12.4209 4.23513C12.9157 4.13472 13.4263 4.14126 13.9183 4.25431C14.4104 4.36737 14.8726 4.58432 15.274 4.89062C15.6753 5.19692 16.0065 5.5855 16.2454 6.03029C16.4843 6.47508 16.6253 6.9658 16.659 7.46956C16.6928 7.97331 16.6184 8.47845 16.4409 8.95111C16.2634 9.42376 15.9869 9.85301 15.6299 10.2101L9.58328 16.2584L3.53661 10.2109V10.2101ZM16.2183 10.8017C16.6451 10.3749 16.9789 9.8644 17.1988 9.30231C17.4188 8.74022 17.52 8.1387 17.4962 7.53558C17.4723 6.93247 17.324 6.34081 17.0604 5.79781C16.7968 5.25481 16.4238 4.77223 15.9647 4.3804C15.5055 3.98858 14.9703 3.696 14.3926 3.52105C13.815 3.34611 13.2073 3.29259 12.608 3.36386C12.0086 3.43513 11.4305 3.62965 10.9099 3.93519C10.3894 4.24072 9.93771 4.65066 9.58328 5.13923C9.22885 4.65066 8.77716 4.24072 8.25662 3.93519C7.73608 3.62965 7.15795 3.43513 6.55859 3.36386C5.95923 3.29259 5.35161 3.34611 4.77393 3.52105C4.19626 3.696 3.66103 3.98858 3.20191 4.3804C2.74279 4.77223 2.36972 5.25481 2.10615 5.79781C1.84258 6.34081 1.69422 6.93247 1.6704 7.53558C1.64658 8.1387 1.74781 8.74022 1.96773 9.30231C2.18765 9.8644 2.5215 10.3749 2.94828 10.8017L9.58328 17.4359L16.2183 10.8026V10.8017Z" fill="black"/>
</svg>
