<svg width="20" height="20" viewBox="0 0 20 20" fill="none" xmlns="http://www.w3.org/2000/svg">
<path d="M2.50033 17.155L5.48866 14.1667H15.0003C15.4424 14.1667 15.8663 13.9911 16.1788 13.6785C16.4914 13.366 16.667 12.942 16.667 12.5V5C16.667 4.55797 16.4914 4.13405 16.1788 3.82149C15.8663 3.50893 15.4424 3.33333 15.0003 3.33333H4.16699C3.72496 3.33333 3.30104 3.50893 2.98848 3.82149C2.67592 4.13405 2.50033 4.55797 2.50033 5V17.155ZM2.50033 18.3333H1.66699V5C1.66699 4.33696 1.93038 3.70107 2.39923 3.23223C2.86807 2.76339 3.50395 2.5 4.16699 2.5H15.0003C15.6634 2.5 16.2993 2.76339 16.7681 3.23223C17.2369 3.70107 17.5003 4.33696 17.5003 5V12.5C17.5003 13.163 17.2369 13.7989 16.7681 14.2678C16.2993 14.7366 15.6634 15 15.0003 15H5.83366L2.50033 18.3333ZM5.00033 5.83333H14.167V6.66667H5.00033V5.83333ZM5.00033 8.33333H14.167V9.16667H5.00033V8.33333ZM5.00033 10.8333H11.667V11.6667H5.00033V10.8333Z" fill="#1A1A1A"/>
</svg>
