<svg width="20" height="20" viewBox="0 0 20 20" fill="none" xmlns="http://www.w3.org/2000/svg">
<g id="mdi-light:delete">
<path id="Vector" d="M14.9997 15.8333C14.9997 16.4964 14.7363 17.1323 14.2674 17.6011C13.7986 18.0699 13.1627 18.3333 12.4997 18.3333H6.66634C6.0033 18.3333 5.36742 18.0699 4.89857 17.6011C4.42973 17.1323 4.16634 16.4964 4.16634 15.8333V5.83333H3.33301V3.33333H7.08301L7.91634 2.5H11.2497L12.083 3.33333H15.833V5.83333H14.9997V15.8333ZM4.99967 5.83333V15.8333C4.99967 16.2754 5.17527 16.6993 5.48783 17.0118C5.80039 17.3244 6.22431 17.5 6.66634 17.5H12.4997C12.9417 17.5 13.3656 17.3244 13.6782 17.0118C13.9907 16.6993 14.1663 16.2754 14.1663 15.8333V5.83333H4.99967ZM14.9997 5V4.16667H11.6663L10.833 3.33333H8.33301L7.49967 4.16667H4.16634V5H14.9997ZM6.66634 7.5H7.49967V15.8333H6.66634V7.5ZM11.6663 7.5H12.4997V15.8333H11.6663V7.5Z" fill="black"/>
</g>
</svg>
