<svg width="20" height="20" viewBox="0 0 20 20" fill="none" xmlns="http://www.w3.org/2000/svg">
<mask id="mask0" mask-type="alpha" maskUnits="userSpaceOnUse" x="0" y="0" width="20" height="20">
<path d="M6 15.5795C4.9 15.5795 4.01 16.4079 4.01 17.4202C4.01 18.4326 4.9 19.2609 6 19.2609C7.1 19.2609 8 18.4326 8 17.4202C8 16.4079 7.1 15.5795 6 15.5795ZM0 0.854004V2.6947H2L5.6 9.68013L4.25 11.935C4.09 12.1927 4 12.4964 4 12.8185C4 13.8309 4.9 14.6592 6 14.6592H18V12.8185H6.42C6.28 12.8185 6.17 12.7173 6.17 12.5884L6.2 12.478L7.1 10.9778H14.55C15.3 10.9778 15.96 10.6005 16.3 10.0299L19.88 4.05681C19.96 3.92796 20 3.7715 20 3.61504C20 3.10885 19.55 2.6947 19 2.6947H4.21L3.27 0.854004H0ZM16 15.5795C14.9 15.5795 14.01 16.4079 14.01 17.4202C14.01 18.4326 14.9 19.2609 16 19.2609C17.1 19.2609 18 18.4326 18 17.4202C18 16.4079 17.1 15.5795 16 15.5795Z" fill="#F04650"/>
</mask>
<g mask="url(#mask0)">
<rect x="-1.92969" y="-2.47363" width="25.1956" height="23.4101" fill="#F04650"/>
</g>
</svg>
