<svg width="22" height="22" viewBox="0 0 22 22" fill="none" xmlns="http://www.w3.org/2000/svg">
<path fill-rule="evenodd" clip-rule="evenodd" d="M5.11328 2.44238C5.11328 1.61396 5.78485 0.942383 6.61328 0.942383H19.9054C20.7338 0.942383 21.4054 1.61396 21.4054 2.44238V19.5575C21.4054 20.3859 20.7338 21.0575 19.9054 21.0575H6.61328C5.78485 21.0575 5.11328 20.3859 5.11328 19.5575V12.9427C5.11328 12.6665 5.33714 12.4427 5.61328 12.4427C5.88942 12.4427 6.11328 12.6665 6.11328 12.9427V19.5575C6.11328 19.8337 6.33714 20.0575 6.61328 20.0575H19.9054C20.1815 20.0575 20.4054 19.8337 20.4054 19.5575V2.44238C20.4054 2.16624 20.1815 1.94238 19.9054 1.94238H6.61328C6.33714 1.94238 6.11328 2.16624 6.11328 2.44238V8.94902C6.11328 9.22517 5.88942 9.44902 5.61328 9.44902C5.33714 9.44902 5.11328 9.22517 5.11328 8.94902V2.44238Z" fill="#F04650"/>
<path fill-rule="evenodd" clip-rule="evenodd" d="M11.4658 7.41647L14.6478 10.5984C14.8431 10.7937 14.8431 11.1103 14.6478 11.3056L11.4658 14.4875C11.2706 14.6828 10.954 14.6828 10.7587 14.4875C10.5635 14.2923 10.5635 13.9757 10.7587 13.7804L13.0872 11.452H1.33789C1.06175 11.452 0.837891 11.2281 0.837891 10.952C0.837891 10.6759 1.06175 10.452 1.33789 10.452H13.0872L10.7587 8.12357C10.5635 7.92831 10.5635 7.61173 10.7587 7.41647C10.954 7.2212 11.2706 7.2212 11.4658 7.41647Z" fill="#F04650"/>
</svg>
