<svg width="36" height="37" viewBox="0 0 36 37" fill="none" xmlns="http://www.w3.org/2000/svg">
<path fill-rule="evenodd" clip-rule="evenodd" d="M34.2924 1.50903L23.8496 11.9518L18.9323 7.03455L24.4578 1.50903H34.2924ZM18.2252 6.32744L13.4068 1.50903H23.0436L18.2252 6.32744ZM11.7936 1.50903H1.70662L6.75012 6.55254L11.7936 1.50903ZM12.6002 2.11665L23.1425 12.6589L17.9995 17.8019L7.45723 7.25964L12.6002 2.11665ZM1 2.21663V11.602L6.75013 17.3521L11.4428 12.6594L1 2.21663ZM1 23.1022V13.0162L6.04302 18.0592L1 23.1022ZM1 24.7161V34.8014L6.04265 29.7588L1 24.7161ZM6.74976 29.0517L17.2924 18.509L12.1499 13.3665L1.60726 23.9092L6.74976 29.0517ZM12.1495 25.0661L1.70663 35.509H11.9928L17.2926 30.2092L12.1495 25.0661ZM17.9998 30.9163L13.4071 35.509H22.5925L17.9998 30.9163ZM12.8566 24.359L23.3998 34.9022L28.5427 29.7593L17.9995 19.2161L12.8566 24.359ZM34.2924 35.509H24.2071L29.2498 30.4664L34.2924 35.509ZM30.1827 18.2839L35 13.4666V23.1012L30.1827 18.2839ZM29.4756 18.991L24.3321 24.1345L35 34.8024V24.5155L29.4756 18.991ZM35 12.0524L34.8755 12.1769L29.9571 7.25854L35 2.21565V12.0524ZM23.625 23.4274L34.1684 12.884L29.25 7.96565L18.7066 18.509L23.625 23.4274ZM1 0.509033C0.447715 0.509033 0 0.956749 0 1.50903V35.509C0 36.0613 0.447716 36.509 1 36.509H35C35.5523 36.509 36 36.0613 36 35.509V1.50903C36 0.956748 35.5523 0.509033 35 0.509033H1Z" fill="#F04650"/>
</svg>
