<svg width="16" height="14" viewBox="0 0 16 14" fill="none" xmlns="http://www.w3.org/2000/svg">
<path d="M1.88939 6.82676C1.52866 6.4723 1.24924 6.04618 1.06988 5.57697C0.890509 5.10775 0.81534 4.60629 0.84941 4.1062C0.883479 3.60611 1.026 3.11896 1.26741 2.67741C1.50883 2.23585 1.84355 1.85011 2.24915 1.54603C2.65475 1.24196 3.12184 1.02659 3.6191 0.914357C4.11636 0.802127 4.63231 0.795632 5.13234 0.89531C5.63237 0.994988 6.10492 1.19853 6.51832 1.4923C6.93171 1.78606 7.27639 2.16326 7.52924 2.59859H8.47076C8.72361 2.16326 9.06829 1.78606 9.48168 1.4923C9.89508 1.19853 10.3676 0.994988 10.8677 0.89531C11.3677 0.795632 11.8836 0.802127 12.3809 0.914357C12.8782 1.02659 13.3453 1.24196 13.7509 1.54603C14.1564 1.85011 14.4912 2.23585 14.7326 2.67741C14.974 3.11896 15.1165 3.60611 15.1506 4.1062C15.1847 4.60629 15.1095 5.10775 14.9301 5.57697C14.7508 6.04618 14.4713 6.4723 14.1106 6.82676L8 12.8311L1.88939 6.82758V6.82676ZM14.7052 7.41412C15.1365 6.99041 15.4738 6.48362 15.6961 5.92561C15.9183 5.36761 16.0206 4.77047 15.9966 4.17175C15.9725 3.57302 15.8226 2.98567 15.5562 2.44662C15.2898 1.90758 14.9128 1.4285 14.4488 1.03953C13.9849 0.65056 13.444 0.360105 12.8602 0.186434C12.2764 0.0127622 11.6624 -0.0403678 11.0567 0.0303847C10.451 0.101137 9.86673 0.294241 9.34068 0.597553C8.81464 0.900864 8.35818 1.30782 8 1.79283C7.64182 1.30782 7.18536 0.900864 6.65931 0.597553C6.13327 0.294241 5.54903 0.101137 4.94333 0.0303847C4.33763 -0.0403678 3.72358 0.0127622 3.13979 0.186434C2.55601 0.360105 2.01512 0.65056 1.55115 1.03953C1.08718 1.4285 0.710159 1.90758 0.443804 2.44662C0.177448 2.98567 0.0275189 3.57302 0.00344501 4.17175C-0.0206288 4.77047 0.0816736 5.36761 0.303919 5.92561C0.526164 6.48362 0.863543 6.99041 1.29484 7.41412L8 14L14.7052 7.41494V7.41412Z" fill="white"/>
</svg>
