<svg width="16" height="14" viewBox="0 0 16 14" fill="none" xmlns="http://www.w3.org/2000/svg">
<path d="M14.7052 7.41412C15.1365 6.99041 15.4738 6.48362 15.6961 5.92561C15.9183 5.36761 16.0206 4.77047 15.9966 4.17175C15.9725 3.57302 15.8226 2.98567 15.5562 2.44662C15.2898 1.90758 14.9128 1.4285 14.4488 1.03953C13.9849 0.65056 13.444 0.360105 12.8602 0.186434C12.2764 0.0127622 11.6624 -0.0403678 11.0567 0.0303847C10.451 0.101137 9.86673 0.294241 9.34068 0.597553C8.81464 0.900864 8.35818 1.30782 8 1.79283C7.64182 1.30782 7.18536 0.900864 6.65931 0.597553C6.13327 0.294241 5.54903 0.101137 4.94333 0.0303847C4.33763 -0.0403678 3.72358 0.0127622 3.13979 0.186434C2.55601 0.360105 2.01512 0.65056 1.55115 1.03953C1.08718 1.4285 0.710159 1.90758 0.443804 2.44662C0.177448 2.98567 0.0275189 3.57302 0.00344501 4.17175C-0.0206288 4.77047 0.0816736 5.36761 0.303919 5.92561C0.526164 6.48362 0.863543 6.99041 1.29484 7.41412L8 14L14.7052 7.41412Z" fill="white"/>
</svg>
