<svg width="120" height="27" viewBox="0 0 120 27" fill="none" xmlns="http://www.w3.org/2000/svg">
<path d="M7.68173 26.6367C5.34258 26.6367 3.48034 25.7737 2.09502 24.0477C0.698339 22.3104 0 19.9655 0 17.0132C0 14.0836 0.698339 11.7558 2.09502 10.0298C3.49169 8.30385 5.35961 7.44086 7.69876 7.44086C9.03866 7.44086 10.2196 7.75313 11.2416 8.37766C12.2294 8.97948 12.9619 9.8084 13.4388 10.8644H13.541V0.661865H18.5145V26.4152H13.6091V23.2131H13.5239C13.0584 24.2578 12.3146 25.0867 11.2927 25.6999C10.248 26.3244 9.04434 26.6367 7.68173 26.6367ZM9.3339 11.4606C8.03941 11.4606 7.01178 11.9602 6.25099 12.9594C5.47884 13.97 5.09276 15.327 5.09276 17.0302C5.09276 18.7449 5.47884 20.1075 6.25099 21.1181C7.01178 22.1173 8.03941 22.617 9.3339 22.617C10.617 22.617 11.6447 22.1117 12.4168 21.1011C13.189 20.0904 13.575 18.7392 13.575 17.0473C13.575 15.3554 13.189 13.9984 12.4168 12.9765C11.6447 11.9659 10.617 11.4606 9.3339 11.4606Z" fill="black"/>
<path d="M29.1599 23.0087C30.3295 23.0087 31.306 22.6851 32.0895 22.0378C32.8957 21.3793 33.2988 20.5447 33.2988 19.534V18.1544L29.3643 18.4269C27.2409 18.5632 26.1792 19.341 26.1792 20.7604C26.1792 21.4531 26.4517 21.9981 26.9968 22.3955C27.5305 22.8043 28.2515 23.0087 29.1599 23.0087ZM27.5418 26.6367C25.7136 26.6367 24.2091 26.12 23.0282 25.0867C21.8245 24.0307 21.2227 22.6737 21.2227 21.0159C21.2227 19.324 21.8586 17.9954 23.1303 17.0302C24.3794 16.0878 26.2076 15.5427 28.6149 15.3951L33.2988 15.1056V13.8622C33.2988 12.9651 33.0093 12.2725 32.4302 11.7842C31.8511 11.3073 31.0449 11.0688 30.0115 11.0688C29.1258 11.0688 28.3821 11.2846 27.7803 11.7161C27.1898 12.1362 26.8321 12.6926 26.7072 13.3853H22.1595C22.2276 11.5912 22.9998 10.1377 24.4759 9.0249C25.9634 7.90074 27.8768 7.33867 30.2159 7.33867C32.6232 7.33867 34.5536 7.90642 36.007 9.04193C37.4605 10.1774 38.1872 11.682 38.1872 13.5556V26.4152H33.384V23.5197H33.2818C32.7822 24.4849 31.9987 25.2513 30.9313 25.8191C29.898 26.3641 28.7682 26.6367 27.5418 26.6367Z" fill="black"/>
<path d="M41.6789 0.661865H46.6524V26.4152H41.6789V0.661865Z" fill="black"/>
<path d="M57.3319 23.0087C58.5015 23.0087 59.478 22.6851 60.2615 22.0378C61.0678 21.3793 61.4709 20.5447 61.4709 19.534V18.1544L57.5363 18.4269C55.4129 18.5632 54.3512 19.341 54.3512 20.7604C54.3512 21.4531 54.6237 21.9981 55.1688 22.3955C55.7025 22.8043 56.4235 23.0087 57.3319 23.0087ZM55.7138 26.6367C53.8857 26.6367 52.3811 26.12 51.2002 25.0867C49.9965 24.0307 49.3947 22.6737 49.3947 21.0159C49.3947 19.324 50.0306 17.9954 51.3024 17.0302C52.5514 16.0878 54.3796 15.5427 56.7869 15.3951L61.4709 15.1056V13.8622C61.4709 12.9651 61.1813 12.2725 60.6022 11.7842C60.0231 11.3073 59.2169 11.0688 58.1836 11.0688C57.2979 11.0688 56.5541 11.2846 55.9523 11.7161C55.3618 12.1362 55.0041 12.6926 54.8792 13.3853H50.3315C50.3996 11.5912 51.1718 10.1377 52.6479 9.0249C54.1355 7.90074 56.0488 7.33867 58.388 7.33867C60.7952 7.33867 62.7256 7.90642 64.1791 9.04193C65.6325 10.1774 66.3592 11.682 66.3592 13.5556V26.4152H61.556V23.5197H61.4538C60.9542 24.4849 60.1707 25.2513 59.1033 25.8191C58.07 26.3641 56.9402 26.6367 55.7138 26.6367Z" fill="black"/>
<path d="M69.7147 7.66229H74.5179V11.0177H74.6201C75.2673 8.63315 76.7548 7.44086 79.0826 7.44086C79.639 7.44086 80.1046 7.50332 80.4793 7.62822V12.0397C80.0365 11.8353 79.4403 11.7331 78.6909 11.7331C77.4305 11.7331 76.4482 12.1021 75.7442 12.8402C75.0402 13.5783 74.6882 14.6059 74.6882 15.9231V26.4152H69.7147V7.66229Z" fill="black"/>
<path d="M89.5577 23.0087C90.7273 23.0087 91.7038 22.6851 92.4873 22.0378C93.2935 21.3793 93.6966 20.5447 93.6966 19.534V18.1544L89.7621 18.4269C87.6387 18.5632 86.577 19.341 86.577 20.7604C86.577 21.4531 86.8495 21.9981 87.3946 22.3955C87.9283 22.8043 88.6493 23.0087 89.5577 23.0087ZM87.9396 26.6367C86.1114 26.6367 84.6069 26.12 83.4259 25.0867C82.2223 24.0307 81.6205 22.6737 81.6205 21.0159C81.6205 19.324 82.2564 17.9954 83.5281 17.0302C84.7772 16.0878 86.6054 15.5427 89.0127 15.3951L93.6966 15.1056V13.8622C93.6966 12.9651 93.4071 12.2725 92.828 11.7842C92.2489 11.3073 91.4427 11.0688 90.4093 11.0688C89.5236 11.0688 88.7799 11.2846 88.1781 11.7161C87.5876 12.1362 87.2299 12.6926 87.105 13.3853H82.5573C82.6254 11.5912 83.3976 10.1377 84.8737 9.0249C86.3612 7.90074 88.2746 7.33867 90.6137 7.33867C93.021 7.33867 94.9514 7.90642 96.4048 9.04193C97.8583 10.1774 98.585 11.682 98.585 13.5556V26.4152H93.7818V23.5197H93.6796C93.18 24.4849 92.3965 25.2513 91.3291 25.8191C90.2958 26.3641 89.166 26.6367 87.9396 26.6367Z" fill="black"/>
<path d="M101.94 7.66229H106.744V11.0177H106.846C107.947 8.59908 109.957 7.38976 112.875 7.38976C114.953 7.38976 116.589 8.00862 117.781 9.24632C118.962 10.484 119.552 12.1987 119.552 14.3902V26.4152H114.579V15.4292C114.579 14.1801 114.261 13.2206 113.625 12.5507C112.978 11.8694 112.069 11.5287 110.9 11.5287C109.707 11.5287 108.748 11.9148 108.021 12.6869C107.283 13.4591 106.914 14.4697 106.914 15.7187V26.4152H101.94V7.66229Z" fill="black"/>
</svg>
