<svg width="13" height="13" viewBox="0 0 13 13" fill="none" xmlns="http://www.w3.org/2000/svg">
<path fill-rule="evenodd" clip-rule="evenodd" d="M7.5365 4.23329L6.23809 1.92969L4.93968 4.23329C4.65428 4.73964 4.16271 5.09679 3.59295 5.21175L1.00087 5.73475L2.79049 7.68146C3.18387 8.10937 3.37163 8.68724 3.3049 9.26464L3.00131 11.8915L5.40576 10.791C5.93429 10.5491 6.5419 10.5491 7.07042 10.791L9.47487 11.8915L9.17128 9.26464C9.10455 8.68724 9.29231 8.10937 9.68569 7.68146L11.4753 5.73475L8.88323 5.21175C8.31346 5.09679 7.8219 4.73964 7.5365 4.23329ZM7.10924 1.43867C6.72673 0.760026 5.74945 0.760026 5.36694 1.43867L4.06853 3.74227C3.92583 3.99545 3.68005 4.17402 3.39517 4.2315L0.803082 4.75451C0.0394493 4.90859 -0.262545 5.83803 0.264681 6.41153L2.05431 8.35825C2.251 8.5722 2.34488 8.86113 2.31151 9.14983L2.00792 11.7767C1.91848 12.5505 2.70911 13.125 3.41747 12.8008L5.82193 11.7003C6.08619 11.5794 6.38999 11.5794 6.65425 11.7003L9.05871 12.8008C9.76707 13.125 10.5577 12.5505 10.4683 11.7767L10.1647 9.14983C10.1313 8.86113 10.2252 8.5722 10.4219 8.35824L12.2115 6.41153C12.7387 5.83803 12.4367 4.90859 11.6731 4.75451L9.08101 4.2315C8.79613 4.17402 8.55035 3.99545 8.40765 3.74227L7.10924 1.43867Z" fill="#F2911E"/>
</svg>
